<?xml version="1.0" standalone="no"?>
<!DOCTYPE svg PUBLIC "-//W3C//DTD SVG 20010904//EN"
 "http://www.w3.org/TR/2001/REC-SVG-20010904/DTD/svg10.dtd">
<svg version="1.0" xmlns="http://www.w3.org/2000/svg"
 width="520.000000pt" height="520.000000pt" viewBox="0 0 520.000000 520.000000"
 preserveAspectRatio="xMidYMid meet">
<metadata>
Created by potrace 1.11, written by Peter Selinger 2001-2013
</metadata>
<g transform="translate(0.000000,520.000000) scale(0.100000,-0.100000)"
fill="#000000" stroke="none">
<path d="M3310 5178 c-28 -14 -83 -69 -177 -177 -74 -86 -161 -185 -193 -221
-31 -36 -124 -141 -205 -235 -81 -93 -152 -174 -159 -180 -6 -5 -21 -23 -34
-39 -12 -15 -48 -58 -80 -95 -57 -63 -178 -202 -252 -288 -19 -22 -60 -69 -90
-103 -30 -35 -93 -107 -140 -160 -47 -53 -139 -159 -205 -235 -66 -76 -124
-143 -130 -149 -5 -6 -52 -61 -104 -121 -52 -61 -99 -114 -105 -120 -6 -5 -38
-41 -71 -80 -33 -38 -62 -72 -65 -75 -3 -3 -32 -36 -65 -75 -33 -38 -67 -76
-75 -85 -8 -8 -82 -94 -165 -189 -82 -95 -169 -194 -193 -220 -69 -76 -97
-142 -96 -231 0 -120 59 -216 164 -271 l45 -24 593 -5 592 -5 -53 -115 c-29
-63 -54 -118 -55 -122 -7 -18 -35 -84 -63 -146 -17 -37 -141 -314 -276 -617
l-245 -550 5 -63 c4 -51 11 -71 34 -100 56 -69 80 -77 245 -80 193 -5 203 0
334 151 54 62 102 117 108 122 6 6 34 37 61 70 28 33 57 67 65 75 8 9 40 45
71 81 150 172 274 315 279 319 3 3 48 55 100 115 120 139 136 158 196 225 27
31 72 82 99 114 28 32 61 71 75 86 29 32 31 35 205 235 71 83 134 155 140 161
5 6 35 39 65 74 30 35 106 122 169 194 63 72 139 160 170 195 31 36 63 72 71
81 8 8 38 42 65 75 28 33 55 65 61 70 7 6 44 48 84 95 40 47 99 114 130 150
149 167 214 248 232 288 65 144 2 319 -139 388 l-58 29 -602 3 c-332 1 -603 4
-603 6 0 2 23 52 51 112 28 60 64 137 79 170 16 34 46 99 68 145 22 46 88 187
147 314 186 399 212 455 295 630 73 154 81 178 82 226 0 87 -60 167 -142 189
-22 6 -99 10 -170 9 -108 -1 -136 -4 -170 -21z m280 -182 c0 -2 -22 -50 -49
-107 -50 -107 -88 -189 -142 -306 -18 -38 -58 -123 -90 -191 -33 -68 -59 -125
-59 -127 0 -2 -31 -69 -70 -150 -38 -81 -70 -148 -70 -150 0 -2 -24 -54 -54
-116 -29 -63 -67 -143 -84 -179 -164 -349 -212 -454 -212 -461 0 -5 329 -9
731 -9 664 0 733 -2 759 -17 31 -18 50 -51 50 -86 0 -27 -19 -56 -90 -138
-158 -182 -215 -247 -244 -279 -17 -19 -58 -66 -91 -105 -33 -38 -62 -72 -65
-75 -5 -5 -135 -154 -279 -319 -31 -35 -72 -83 -92 -105 -20 -23 -89 -102
-154 -176 -64 -74 -141 -162 -170 -195 -29 -33 -88 -100 -131 -150 -43 -49
-82 -95 -88 -101 -6 -6 -31 -35 -55 -64 -25 -29 -50 -58 -55 -64 -6 -6 -27
-29 -46 -52 -19 -22 -62 -71 -96 -109 -34 -39 -98 -113 -144 -165 -45 -52 -94
-108 -108 -125 -15 -16 -60 -68 -101 -115 -40 -47 -99 -114 -131 -150 -31 -36
-79 -90 -105 -120 -26 -30 -59 -68 -74 -85 -14 -16 -55 -64 -91 -105 -35 -41
-70 -80 -76 -87 -8 -8 -46 -12 -108 -12 l-95 0 18 47 c16 38 183 415 261 587
10 22 54 121 98 220 44 99 94 210 111 247 16 37 37 82 45 101 8 19 26 61 41
93 14 33 70 158 124 279 l98 220 -721 5 c-777 5 -751 3 -775 57 -16 34 -13 64
7 94 19 29 155 189 212 249 8 9 37 43 65 75 27 33 55 65 61 70 6 6 37 41 70
80 32 38 73 85 90 105 97 110 190 216 271 309 21 25 47 55 58 67 11 12 43 48
70 80 28 32 88 101 134 154 100 114 117 133 201 230 35 41 71 82 80 91 8 9 26
29 40 45 75 88 145 170 150 174 3 3 50 57 105 120 123 143 217 251 230 266 6
6 37 41 70 79 33 38 67 76 75 85 8 9 55 63 105 120 49 58 92 107 95 110 3 3
32 37 65 75 33 39 65 75 71 80 9 9 122 139 149 172 7 8 43 12 108 13 53 0 97
-2 97 -4z"/>
<path d="M2638 3768 c-8 -7 -161 -188 -340 -403 -178 -214 -331 -399 -341
-410 -9 -11 -82 -99 -163 -195 -162 -194 -184 -224 -184 -258 0 -31 25 -77 47
-88 10 -5 290 -11 621 -14 l604 -5 24 -28 c44 -51 37 -71 -138 -420 -241 -482
-248 -496 -248 -517 0 -26 28 -52 54 -48 14 2 128 141 363 443 188 242 345
445 350 450 5 6 33 42 63 81 30 39 91 118 136 175 91 117 104 139 104 169 0
29 -26 76 -47 86 -10 5 -290 11 -621 14 l-604 5 -24 30 c-44 55 -37 72 138
377 89 156 177 310 195 343 19 33 42 74 53 90 10 17 24 45 30 63 10 28 9 36
-6 53 -20 22 -43 24 -66 7z"/>
</g>
</svg>
